<?xml version="1.0" standalone="no"?>
<!DOCTYPE svg PUBLIC "-//W3C//DTD SVG 20010904//EN"
 "http://www.w3.org/TR/2001/REC-SVG-20010904/DTD/svg10.dtd">
<svg version="1.0" xmlns="http://www.w3.org/2000/svg"
 width="175.000000pt" height="156.000000pt" viewBox="0 0 175.000000 156.000000"
 preserveAspectRatio="xMidYMid meet">

<g transform="translate(0.000000,156.000000) scale(0.100000,-0.100000)"
fill="#ef4554" stroke="none">
<path d="M964 1242 c-23 -15 -32 -45 -22 -68 6 -12 8 -34 4 -48 -6 -25 -8 -25
-65 -20 l-58 7 -39 -47 c-23 -27 -46 -46 -59 -46 -11 0 -88 18 -171 39 -156
39 -177 40 -216 4 -12 -11 -18 -31 -18 -59 0 -34 5 -47 25 -63 22 -16 31 -18
56 -9 34 12 63 -3 111 -56 38 -41 35 -48 -9 -25 -79 40 -152 34 -213 -17 -36
-31 -56 -66 -65 -117 -6 -29 -2 -49 20 -92 14 -30 30 -55 34 -55 5 0 -3 21
-16 47 -73 142 54 285 206 232 39 -14 60 -46 35 -56 -9 -3 -31 -1 -48 5 -46
17 -76 15 -112 -7 -63 -38 -70 -128 -13 -175 17 -14 41 -29 53 -32 36 -9 94
21 117 61 39 66 80 34 44 -35 -23 -45 -73 -70 -139 -70 -36 0 -55 -4 -51 -10
9 -15 80 -12 118 4 45 19 85 65 105 122 l18 49 121 -4 c164 -4 167 -3 229 139
26 61 54 110 61 110 7 0 23 -20 35 -44 l21 -44 -35 -42 c-20 -22 -41 -61 -48
-86 -16 -57 -43 -75 -129 -89 l-66 -11 -3 -105 c-4 -145 7 -180 83 -254 34
-33 78 -69 98 -79 l35 -20 36 25 c20 13 36 28 36 32 0 5 -13 -1 -29 -12 -16
-12 -38 -21 -49 -21 -31 0 -134 86 -164 138 -26 44 -28 55 -28 164 l0 117 48
7 c43 6 92 27 133 56 14 9 23 7 48 -14 27 -23 104 -48 146 -48 12 0 15 -20 15
-102 0 -123 -11 -167 -52 -213 -16 -19 -25 -35 -20 -35 17 0 60 62 77 109 8
24 15 67 15 97 0 43 3 54 19 59 30 9 89 80 101 122 35 115 -78 234 -205 218
-51 -6 -51 -6 -68 30 -24 51 -22 55 27 55 24 0 48 6 54 13 16 19 -7 59 -45 77
-38 17 -41 29 -13 53 11 9 20 26 20 37 0 26 -34 60 -60 60 -12 0 -31 11 -43
25 -12 14 -27 22 -33 17z m45 -56 c12 -18 21 -50 21 -70 0 -31 -3 -36 -22 -36
-35 0 -52 15 -45 40 3 12 1 34 -4 48 -22 57 17 71 50 18z m64 -28 c6 -8 7 -24
3 -34 -6 -16 -9 -14 -22 15 -8 18 -14 35 -14 38 0 10 24 -4 33 -19z m-75 -95
c97 -26 132 -44 132 -70 0 -9 -16 -13 -58 -13 -32 0 -66 -6 -75 -12 -8 -7 -34
-56 -57 -108 -66 -151 -51 -140 -186 -140 -63 0 -124 4 -134 10 -16 8 -40 58
-40 81 0 5 23 9 50 9 45 0 55 4 95 41 25 23 43 44 40 47 -3 3 -22 -11 -43 -31
-35 -35 -42 -37 -100 -37 -50 0 -63 3 -72 19 -5 11 -55 52 -110 92 -55 40
-100 78 -100 85 0 8 11 21 25 30 24 16 33 14 194 -26 166 -41 170 -42 199 -25
41 24 66 14 60 -25 -4 -24 -2 -27 9 -19 18 16 16 32 -8 63 -49 62 18 73 179
29z m-617 -83 c22 -12 26 -40 5 -40 -28 0 -46 12 -46 31 0 21 12 24 41 9z
m859 -142 c73 -50 96 -122 66 -203 -18 -45 -56 -85 -82 -85 -23 0 -16 45 11
70 75 71 17 190 -92 190 -35 0 -43 3 -43 18 0 27 9 32 60 32 32 0 57 -7 80
-22z m-178 -67 c-12 -21 -22 -46 -22 -55 0 -18 -8 -20 -29 -7 -19 12 -8 51 25
91 38 44 56 24 26 -29z m-622 14 c0 -3 -17 -12 -37 -20 -43 -18 -53 -30 -53
-64 0 -51 46 -73 104 -51 31 11 34 0 7 -24 -12 -11 -36 -18 -58 -18 -30 0 -43
7 -66 32 -24 27 -28 39 -23 69 7 47 46 81 92 81 19 0 34 -2 34 -5z m135 -26
c9 -17 15 -32 13 -34 -8 -7 -165 -55 -179 -55 -22 0 -41 24 -33 43 3 9 44 29
92 46 48 16 88 30 89 30 1 1 10 -13 18 -30z m650 6 c19 -18 25 -35 25 -68 0
-61 -12 -69 -91 -56 -97 15 -99 16 -99 55 0 42 15 74 35 74 8 0 26 -21 39 -47
14 -27 25 -41 25 -33 0 8 -6 26 -14 40 -25 44 -19 60 20 60 25 0 44 -8 60 -25z"/>
<path d="M979 619 c-13 -9 -49 -19 -111 -33 -28 -6 -28 -7 -28 -88 0 -104 21
-151 94 -207 29 -23 56 -41 61 -41 4 0 33 21 63 47 73 62 94 110 90 205 -3 71
-4 73 -33 81 -16 5 -51 17 -76 27 -29 11 -52 14 -60 9z m49 -23 c15 -8 44 -17
65 -21 l37 -7 0 -82 c-1 -58 -6 -91 -19 -114 -19 -37 -95 -102 -119 -102 -22
0 -100 67 -117 100 -10 19 -15 58 -15 112 l0 83 63 21 c79 27 73 26 105 10z"/>
<path d="M1033 470 c-21 -27 -43 -49 -50 -50 -6 0 -20 12 -31 27 -11 16 -23
26 -26 23 -2 -3 10 -23 27 -43 l32 -38 40 53 c47 61 58 78 51 78 -2 0 -22 -22
-43 -50z"/>
</g>
</svg>
