<svg id="Layer_1" enable-background="new 0 0 512.064 512.064" height="512" viewBox="0 0 512.064 512.064" width="512" xmlns="http://www.w3.org/2000/svg"><g><path d="m473.009 138.883-.009-.488c-.242-12.766-.471-24.824-.471-36.425 0-17.574-14.297-31.871-31.871-31.871-67.998 0-119.606-19.387-162.415-61.011-12.459-12.117-31.98-12.118-44.438-.001-42.807 41.625-94.41 61.012-162.398 61.012-17.574 0-31.871 14.297-31.871 31.871 0 11.849-.233 24.027-.48 36.923-1.15 60.201-2.581 135.123 22.562 203.131 13.825 37.396 34.758 69.894 62.218 96.592 31.275 30.407 72.238 54.527 121.747 71.688 3.367 1.168 6.879 1.76 10.44 1.76 3.565 0 7.079-.593 10.438-1.759 49.516-17.163 90.482-41.283 121.76-71.691 27.462-26.699 48.398-59.198 62.224-96.595 25.145-68.012 23.714-142.935 22.564-203.136zm-50.704 192.733c-26.516 71.717-80.707 120.895-165.679 150.347-.388.134-.814.137-1.216-.003-84.957-29.448-139.143-78.624-165.655-150.338-23.178-62.696-21.865-131.474-20.706-192.156.25-13.041.486-25.359.486-37.496 0-1.031.839-1.871 1.871-1.871 76.299 0 134.548-22.085 183.313-69.505.365-.355.834-.533 1.303-.533s.939.179 1.305.534c48.768 47.419 107.022 69.504 183.33 69.504 1.031 0 1.871.84 1.871 1.871 0 11.886.231 24.082.477 36.994l.009.49v.001c1.16 60.683 2.473 129.462-20.709 192.161z"/><path d="m349.235 206.118h-48.265v-48.271c0-8.284-6.716-15-15-15h-59.866c-8.284 0-15 6.716-15 15v48.271h-48.274c-8.284 0-15 6.716-15 15v59.866c0 8.284 6.716 15 15 15h48.274v48.27c0 8.284 6.716 15 15 15h59.866c8.284 0 15-6.716 15-15v-48.27h48.266c8.284 0 15-6.716 15-15v-59.866c-.001-8.285-6.717-15-15.001-15zm-15 59.866h-48.265c-8.284 0-15 6.716-15 15v48.27h-29.866v-48.27c0-8.284-6.716-15-15-15h-48.274v-29.866h48.274c8.284 0 15-6.716 15-15v-48.271h29.866v48.271c0 8.284 6.716 15 15 15h48.266v29.866z"/></g></svg>