<?xml version="1.0" standalone="no"?>
<!DOCTYPE svg PUBLIC "-//W3C//DTD SVG 20010904//EN"
 "http://www.w3.org/TR/2001/REC-SVG-20010904/DTD/svg10.dtd">
<svg version="1.0" xmlns="http://www.w3.org/2000/svg"
 width="35.000000pt" height="35.000000pt" viewBox="0 0 35.000000 35.000000"
 preserveAspectRatio="xMidYMid meet">

<g transform="translate(0.000000,35.000000) scale(0.100000,-0.100000)"
fill="#000000" stroke="none">
<path d="M186 274 c-19 -19 -20 -53 -4 -90 11 -24 10 -28 -7 -38 -10 -6 -29
-21 -42 -33 l-23 -22 0 28 c0 34 -9 44 -26 30 -10 -8 -11 -15 -1 -32 29 -53
37 -57 114 -57 41 0 83 5 94 10 30 16 23 45 -16 66 -25 13 -33 23 -29 34 27
64 28 68 11 94 -20 29 -48 34 -71 10z"/>
<path d="M94 266 c-4 -9 -4 -26 0 -39 4 -15 -1 -27 -16 -38 -12 -10 -18 -21
-13 -28 5 -9 11 -7 20 6 13 17 14 17 20 1 8 -20 50 -24 61 -6 4 6 -1 17 -12
25 -13 9 -19 26 -19 51 0 27 -5 37 -18 40 -9 2 -20 -4 -23 -12z"/>
</g>
</svg>
