<svg id="Capa_1" enable-background="new 0 0 512 512" height="512" viewBox="0 0 512 512" width="512" xmlns="http://www.w3.org/2000/svg"><g fill="red"><circle cx="72.398" cy="309.487" r="7.5"/><circle cx="56.625" cy="281.675" r="7.5"/><ellipse cx="47.499" cy="250.699" rx="7.5" ry="7.501" transform="matrix(.987 -.16 .16 .987 -39.544 10.846)"/><circle cx="46.152" cy="218.431" r="7.5"/><ellipse cx="52.253" cy="186.163" rx="7.501" ry="7.5" transform="matrix(.383 -.924 .924 .383 -139.735 163.197)"/><circle cx="64.892" cy="156.984" r="7.501"/><ellipse cx="83.019" cy="130.217" rx="7.501" ry="7.501" transform="matrix(.973 -.23 .23 .973 -27.697 22.557)"/><circle cx="160.682" cy="73.535" r="7.5"/><ellipse cx="190.986" cy="63.772" rx="7.5" ry="7.501" transform="matrix(.987 -.16 .16 .987 -7.749 31.416)"/><circle cx="223.488" cy="59.018" r="7.5"/><circle cx="255.816" cy="59.68" r="7.5"/><circle cx="287.513" cy="66.031" r="7.5"/><circle cx="317.422" cy="78.283" r="7.501"/><path d="m179.861 185.911h25.021c10.26 0 19.906-3.995 27.161-11.25l24.691-24.691c9.065-9.067 9.566-23.738 1.139-33.401l-12.023-13.786c-.908-1.041-1.426-2.329-1.546-3.655 2.06-.078 4.126-.131 6.205-.131 16.655 0 33.071 2.526 48.792 7.506 3.947 1.252 8.166-.936 9.418-4.886 1.251-3.95-.936-8.166-4.886-9.417-17.188-5.445-35.129-8.207-53.323-8.207-34.879-.015-69.002 10.573-96.597 28.882-48.005 31.548-79.769 85.872-79.769 147.484 0 43.259 15.817 84.868 44.538 117.161 1.482 1.666 3.54 2.516 5.608 2.516 1.773 0 3.553-.625 4.983-1.896 3.096-2.753 3.373-7.495.62-10.591-26.275-29.543-40.745-67.611-40.745-107.19 0-34.198 10.702-65.938 28.921-92.066v23.395c0 5.968 3.285 11.394 8.573 14.159 4.154 2.126 10.871 2.824 16.52-1.033l19.443-13.498c5.09-3.537 11.057-5.405 17.256-5.405zm-45.257 6.577c-.133.092-.487.337-1.009.063-.524-.274-.524-.703-.524-.864v-26.357c0-6.729 2.621-13.056 7.379-17.814l22.894-22.894c19.538-12.59 41.956-21.076 66.028-24.24.384 4.447 2.124 8.771 5.169 12.263l12.024 13.787c3.262 3.74 3.068 9.42-.441 12.93l-24.691 24.691c-4.422 4.422-10.3 6.856-16.552 6.856h-25.021c-9.272 0-18.199 2.795-25.814 8.083z"/><circle cx="372.021" cy="97.083" r="17.132"/><path d="m465.847 359.444c4.143 0 7.502-3.359 7.502-7.502v-42.91c0-6.935-5.642-12.618-12.577-12.669l-11.423-.083c-9.973-.072-18.451-1.101-25.622-2.643 2.084-10.918 3.147-22.085 3.147-33.279 0-37.865-11.747-73.773-34.007-104.124 9.509-15.615 20.296-37.248 21.545-56.646.771-11.973-3.392-23.87-11.419-32.641-7.821-8.545-18.447-13.403-29.922-13.681-11.547-.27-22.479 4.009-30.743 12.077-8.267 8.069-12.82 18.875-12.82 30.425 0 19.724 10.227 41.583 19.898 57.849l-3.503 12.192c-4.286 14.919-3.144 30.933 3.216 45.093l10.554 23.497c5.987 13.328 19.296 21.94 33.907 21.94 6.362 0 12.54-1.621 18.055-4.692.152 2.891.236 5.794.236 8.712 0 9.728-.884 19.428-2.602 28.932-10.275-4.118-15.902-8.939-18.101-11.139-1.971-1.97-3.826-4.12-5.513-6.389-3.223-4.336-8.171-6.83-13.574-6.844-5.392-.01-10.392 2.466-13.647 6.803-1.682 2.24-3.562 4.404-5.589 6.431-1.945 1.945-4.73 4.278-8.562 6.614-.992-7.928-5.211-15.366-12.11-20.25l-80.399-56.917c-8.536-6.042-18.913-8.401-29.223-6.636-10.308 1.763-19.314 7.435-25.356 15.97l-18.225 25.745c-11.157 15.759-7.412 37.657 8.348 48.814l4.632 3.279c5.532 3.916 8.686 10.298 8.437 17.071l-2.671 72.589c-.307 8.348 3.572 16.224 10.377 21.07 7.662 5.385 19.35 6.478 28.477.165l34.095-23.687v3.833c0 11.467 1.774 22.955 5.175 33.926-8.345 1.313-16.831 1.978-25.329 1.978-34.538 0-67.475-10.753-95.247-31.096-3.342-2.447-8.037-1.723-10.485 1.619-2.448 3.343-1.724 8.037 1.619 10.485 30.363 22.241 66.365 33.996 104.114 33.996 10.354 0 20.693-.916 30.825-2.701.323.696.645 1.392.982 2.081 7.623 15.567 18.89 29.412 32.583 40.04l37.578 29.165c5.561 4.315 12.496 6.691 19.53 6.691s13.969-2.377 19.529-6.692l37.578-29.164c13.694-10.628 24.961-24.474 32.583-40.039 7.623-15.567 11.652-32.956 11.652-50.289 0-4.143-3.359-7.502-7.502-7.502s-7.502 3.359-7.502 7.502c0 15.059-3.501 30.166-10.124 43.69-6.622 13.523-16.411 25.552-28.307 34.785l-37.577 29.164c-2.985 2.317-6.557 3.541-10.331 3.541s-7.346-1.224-10.33-3.54l-37.577-29.164c-11.896-9.233-21.684-21.262-28.308-34.786-6.623-13.523-10.123-28.63-10.123-43.69v-74.463l9.103-.066c17.862-.13 31.72-2.921 42.346-6.711.342-.098.676-.222 1.001-.368 12.849-4.749 20.825-10.933 25.335-15.443 2.526-2.526 4.874-5.228 6.978-8.032.527-.701 1.231-.806 1.607-.806h.005c.448.001 1.084.139 1.569.791 2.122 2.854 4.459 5.562 6.945 8.047 6.67 6.67 26.715 22.218 68.682 22.522l9.104.066v40.592c-.001 4.143 3.357 7.502 7.501 7.502zm-113.04-283.365c5.183-5.06 11.982-7.822 19.213-7.822.229 0 .459.003.688.009 7.354.177 14.179 3.307 19.217 8.811 5.285 5.774 8.024 13.629 7.515 21.548-1.425 22.141-18.325 49.104-27.468 62.2-8.513-12.069-27.461-41.581-27.461-65.056 0-7.476 2.946-14.468 8.296-19.69zm53.14 161.484c-3.669 2.467-7.946 3.771-12.367 3.771-8.713 0-16.65-5.136-20.22-13.083l-10.554-23.497c-4.869-10.839-5.77-23.086-2.556-34.521.592.83 1.159 1.616 1.683 2.33 2.341 3.197 6.098 5.101 10.056 5.101h.046c3.972-.015 7.731-1.948 10.055-5.171.6-.833 1.256-1.756 1.954-2.753 13.438 19.716 22.177 41.811 25.847 65.172zm-111.285 58.717-11.421.083c-6.935.05-12.577 5.733-12.577 12.669v54.681l-42.656 29.635c-3.367 2.339-7.873 2.313-11.213-.065-2.679-1.908-4.207-5.009-4.086-8.296l2.671-72.59c.435-11.851-5.083-23.017-14.762-29.869l-4.632-3.279c-9.007-6.376-11.148-18.892-4.771-27.899l18.226-25.745c7.693-10.869 22.795-13.451 33.664-5.757l80.399 56.916c4.753 3.364 6.886 9.214 5.655 14.704-8.745 2.74-20.031 4.707-34.497 4.812z"/><path d="m411.899 455.012c21.735-16.869 34.2-42.323 34.2-69.836v-51.583c0-5.495-4.114-10.103-9.569-10.718-13.116-1.48-25.317-4.256-36.265-8.252-7.28-2.657-13.849-5.817-19.525-9.395-5.305-3.344-12.162-3.343-17.469 0-5.675 3.577-12.244 6.738-19.525 9.395-10.948 3.996-23.15 6.772-36.266 8.252-5.455.615-9.568 5.224-9.568 10.718v51.583c0 27.513 12.466 52.968 34.2 69.837l33.276 25.826c1.948 1.513 4.282 2.269 6.617 2.269 2.334 0 4.668-.756 6.615-2.268zm-39.893 11.968-30.694-23.821c-18.046-14.006-28.396-35.14-28.396-57.984v-47.851c12.886-1.702 24.971-4.592 35.974-8.608 8.278-3.021 15.808-6.653 22.38-10.795.454-.286 1.017-.286 1.47-.001 6.574 4.144 14.104 7.776 22.381 10.796 11.002 4.015 23.087 6.906 35.974 8.608v47.851c0 22.843-10.35 43.978-28.396 57.983z"/><path d="m415.184 349.437c-3.254-2.564-7.971-2.005-10.535 1.249l-37.388 47.445-18.175-23.732c-2.519-3.289-7.228-3.913-10.517-1.395-3.289 2.519-3.914 7.228-1.395 10.517l24.046 31.399c1.409 1.839 3.588 2.925 5.904 2.941h.052c2.297 0 4.469-1.053 5.892-2.859l43.364-55.03c2.566-3.254 2.006-7.971-1.248-10.535z"/><path d="m47.219 66.373 14.573 9.54-2.906 17.175c-.521 3.082.686 6.193 3.15 8.117s5.773 2.341 8.635 1.091l7.409-3.236c1.77-.775 3.27-2.127 4.224-3.809l9.16-16.166 11.943-2.927-5.257 42.751c-.367 2.99.906 5.965 3.32 7.766 3.72 4.599 16.98-2.93 21.549-4.783 2.408-1.052 4.284-2.97 5.283-5.403l24.629-60.042 15.501-6.77c2.573-1.124 4.873-2.713 6.835-4.721l9.307-9.53c3.713-3.802 4.737-9.406 2.61-14.276s-6.928-7.914-12.246-7.787l-13.314.35c-2.807.074-5.536.681-8.111 1.805l-14.832 6.478-57.083-21.354c-2.462-.921-5.143-.849-7.553.203l-13.158 5.747c-2.761 1.206-4.676 3.815-4.996 6.812-.32 2.996.999 5.951 3.441 7.712l32.052 23.121-11.754 7.756-18.081-4.266c-1.886-.445-3.904-.264-5.673.511l-7.401 3.232c-2.865 1.25-4.809 3.962-5.071 7.078-.263 3.115 1.199 6.114 3.815 7.825zm58.463-13.594c3.823-2.021 6.012-2.822 6.848-7.121.515-2.645-.885-5.306-3.071-6.882l-31.97-23.063.727-.317 58.053 21.718c1.826.683 3.846.629 5.631-.151l17.617-7.694c.793-.346 1.633-.533 2.499-.556l8.357-.22-5.842 5.982c-.604.619-1.312 1.108-2.106 1.454l-18.286 7.986c-1.786.78-3.198 2.225-3.938 4.028l-15.064 36.723c-.208.401-.383.821-.517 1.26l-9.442 23.019-.726.317 5.201-42.299c.026-6.095-3.825-10.013-11.062-7.522l-20.685 5.068c-.001-.001 13.953-9.709 17.776-11.73zm-26.346 14.56c.539.127 1.085.193 1.629.2-.365.404-.688.85-.961 1.331l-2.575 4.544c.416-2.832-.817-5.656-3.178-7.275z"/></g></svg>