<?xml version="1.0" standalone="no"?>
<!DOCTYPE svg PUBLIC "-//W3C//DTD SVG 20010904//EN"
 "http://www.w3.org/TR/2001/REC-SVG-20010904/DTD/svg10.dtd">
<svg version="1.0" xmlns="http://www.w3.org/2000/svg"
 width="67.000000pt" height="71.000000pt" viewBox="0 0 67.000000 71.000000"
 preserveAspectRatio="xMidYMid meet">

<g transform="translate(0.000000,71.000000) scale(0.100000,-0.100000)"
fill="white" stroke="none">
<path d="M350 440 c-24 -24 -25 -45 -5 -84 8 -15 15 -30 15 -31 0 -2 -16 -12
-35 -24 -19 -11 -35 -28 -35 -38 -1 -17 -1 -17 -11 -1 -5 10 -9 26 -7 35 2 11
-3 18 -12 18 -18 0 -15 -30 6 -62 13 -21 22 -23 103 -23 66 0 92 4 101 15 17
21 7 40 -30 56 -24 11 -30 18 -24 34 3 11 8 36 11 56 4 30 1 39 -18 53 -30 21
-35 20 -59 -4z"/>
<path d="M260 435 c-7 -9 -10 -25 -6 -41 5 -20 2 -30 -14 -41 -11 -8 -18 -19
-14 -24 4 -6 11 -6 20 2 12 9 17 9 27 -4 8 -11 20 -15 35 -11 27 8 29 30 2 44
-16 9 -18 14 -8 35 8 19 8 28 -2 40 -16 19 -24 19 -40 0z"/>
</g>
</svg>
